<mxfile host="app.diagrams.net" modified="2022-05-18T13:52:59.029Z" agent="5.0 (Windows NT 10.0; Win64; x64) AppleWebKit/537.36 (KHTML, like Gecko) Chrome/101.0.4951.64 Safari/537.36 Edg/101.0.1210.47" etag="EaXUqFZsigkoft-jdoXB" version="17.4.6" type="github">
  <diagram id="M-4HG1NZ0QNDausYGaqh" name="Page-1">
    <mxGraphModel dx="1038" dy="539" grid="1" gridSize="10" guides="1" tooltips="1" connect="1" arrows="1" fold="1" page="1" pageScale="1" pageWidth="827" pageHeight="1169" math="0" shadow="0">
      <root>
        <mxCell id="0" />
        <mxCell id="1" parent="0" />
        <mxCell id="Eke_tYe1ep5mfR0q0I3--1" value="" style="shape=table;html=1;whiteSpace=wrap;startSize=0;container=1;collapsible=0;childLayout=tableLayout;" vertex="1" parent="1">
          <mxGeometry x="80" y="160" width="200" height="160" as="geometry" />
        </mxCell>
        <mxCell id="Eke_tYe1ep5mfR0q0I3--2" value="" style="shape=tableRow;horizontal=0;startSize=0;swimlaneHead=0;swimlaneBody=0;top=0;left=0;bottom=0;right=0;collapsible=0;dropTarget=0;fillColor=none;points=[[0,0.5],[1,0.5]];portConstraint=eastwest;" vertex="1" parent="Eke_tYe1ep5mfR0q0I3--1">
          <mxGeometry width="200" height="53" as="geometry" />
        </mxCell>
        <mxCell id="Eke_tYe1ep5mfR0q0I3--3" value="&lt;span style=&quot;font-family: &amp;#34;comic sans ms&amp;#34; ; font-size: 14px&quot;&gt;X11&lt;/span&gt;" style="shape=partialRectangle;html=1;whiteSpace=wrap;connectable=0;fillColor=none;top=0;left=0;bottom=0;right=0;overflow=hidden;" vertex="1" parent="Eke_tYe1ep5mfR0q0I3--2">
          <mxGeometry width="67" height="53" as="geometry">
            <mxRectangle width="67" height="53" as="alternateBounds" />
          </mxGeometry>
        </mxCell>
        <mxCell id="Eke_tYe1ep5mfR0q0I3--4" value="&lt;font face=&quot;Comic Sans MS&quot; style=&quot;font-size: 14px&quot;&gt;X12&lt;/font&gt;" style="shape=partialRectangle;html=1;whiteSpace=wrap;connectable=0;fillColor=none;top=0;left=0;bottom=0;right=0;overflow=hidden;" vertex="1" parent="Eke_tYe1ep5mfR0q0I3--2">
          <mxGeometry x="67" width="66" height="53" as="geometry">
            <mxRectangle width="66" height="53" as="alternateBounds" />
          </mxGeometry>
        </mxCell>
        <mxCell id="Eke_tYe1ep5mfR0q0I3--5" value="&lt;font face=&quot;Comic Sans MS&quot; style=&quot;font-size: 14px&quot;&gt;x13&lt;/font&gt;" style="shape=partialRectangle;html=1;whiteSpace=wrap;connectable=0;fillColor=none;top=0;left=0;bottom=0;right=0;overflow=hidden;" vertex="1" parent="Eke_tYe1ep5mfR0q0I3--2">
          <mxGeometry x="133" width="67" height="53" as="geometry">
            <mxRectangle width="67" height="53" as="alternateBounds" />
          </mxGeometry>
        </mxCell>
        <mxCell id="Eke_tYe1ep5mfR0q0I3--6" value="" style="shape=tableRow;horizontal=0;startSize=0;swimlaneHead=0;swimlaneBody=0;top=0;left=0;bottom=0;right=0;collapsible=0;dropTarget=0;fillColor=none;points=[[0,0.5],[1,0.5]];portConstraint=eastwest;" vertex="1" parent="Eke_tYe1ep5mfR0q0I3--1">
          <mxGeometry y="53" width="200" height="54" as="geometry" />
        </mxCell>
        <mxCell id="Eke_tYe1ep5mfR0q0I3--7" value="&lt;font face=&quot;Comic Sans MS&quot; style=&quot;font-size: 14px&quot;&gt;x21&lt;/font&gt;" style="shape=partialRectangle;html=1;whiteSpace=wrap;connectable=0;fillColor=none;top=0;left=0;bottom=0;right=0;overflow=hidden;" vertex="1" parent="Eke_tYe1ep5mfR0q0I3--6">
          <mxGeometry width="67" height="54" as="geometry">
            <mxRectangle width="67" height="54" as="alternateBounds" />
          </mxGeometry>
        </mxCell>
        <mxCell id="Eke_tYe1ep5mfR0q0I3--8" value="&lt;font face=&quot;Comic Sans MS&quot; style=&quot;font-size: 14px&quot;&gt;x22&lt;/font&gt;" style="shape=partialRectangle;html=1;whiteSpace=wrap;connectable=0;fillColor=none;top=0;left=0;bottom=0;right=0;overflow=hidden;" vertex="1" parent="Eke_tYe1ep5mfR0q0I3--6">
          <mxGeometry x="67" width="66" height="54" as="geometry">
            <mxRectangle width="66" height="54" as="alternateBounds" />
          </mxGeometry>
        </mxCell>
        <mxCell id="Eke_tYe1ep5mfR0q0I3--9" value="&lt;font face=&quot;Comic Sans MS&quot; style=&quot;font-size: 14px&quot;&gt;x23&lt;/font&gt;" style="shape=partialRectangle;html=1;whiteSpace=wrap;connectable=0;fillColor=none;top=0;left=0;bottom=0;right=0;overflow=hidden;" vertex="1" parent="Eke_tYe1ep5mfR0q0I3--6">
          <mxGeometry x="133" width="67" height="54" as="geometry">
            <mxRectangle width="67" height="54" as="alternateBounds" />
          </mxGeometry>
        </mxCell>
        <mxCell id="Eke_tYe1ep5mfR0q0I3--10" value="" style="shape=tableRow;horizontal=0;startSize=0;swimlaneHead=0;swimlaneBody=0;top=0;left=0;bottom=0;right=0;collapsible=0;dropTarget=0;fillColor=none;points=[[0,0.5],[1,0.5]];portConstraint=eastwest;" vertex="1" parent="Eke_tYe1ep5mfR0q0I3--1">
          <mxGeometry y="107" width="200" height="53" as="geometry" />
        </mxCell>
        <mxCell id="Eke_tYe1ep5mfR0q0I3--11" value="&lt;font face=&quot;Comic Sans MS&quot; style=&quot;font-size: 14px&quot;&gt;x31&lt;/font&gt;" style="shape=partialRectangle;html=1;whiteSpace=wrap;connectable=0;fillColor=none;top=0;left=0;bottom=0;right=0;overflow=hidden;" vertex="1" parent="Eke_tYe1ep5mfR0q0I3--10">
          <mxGeometry width="67" height="53" as="geometry">
            <mxRectangle width="67" height="53" as="alternateBounds" />
          </mxGeometry>
        </mxCell>
        <mxCell id="Eke_tYe1ep5mfR0q0I3--12" value="&lt;font face=&quot;Comic Sans MS&quot; style=&quot;font-size: 14px&quot;&gt;x32&lt;/font&gt;" style="shape=partialRectangle;html=1;whiteSpace=wrap;connectable=0;fillColor=none;top=0;left=0;bottom=0;right=0;overflow=hidden;" vertex="1" parent="Eke_tYe1ep5mfR0q0I3--10">
          <mxGeometry x="67" width="66" height="53" as="geometry">
            <mxRectangle width="66" height="53" as="alternateBounds" />
          </mxGeometry>
        </mxCell>
        <mxCell id="Eke_tYe1ep5mfR0q0I3--13" value="&lt;font face=&quot;Comic Sans MS&quot; style=&quot;font-size: 14px&quot;&gt;x33&lt;/font&gt;" style="shape=partialRectangle;html=1;whiteSpace=wrap;connectable=0;fillColor=none;top=0;left=0;bottom=0;right=0;overflow=hidden;pointerEvents=1;" vertex="1" parent="Eke_tYe1ep5mfR0q0I3--10">
          <mxGeometry x="133" width="67" height="53" as="geometry">
            <mxRectangle width="67" height="53" as="alternateBounds" />
          </mxGeometry>
        </mxCell>
        <mxCell id="Eke_tYe1ep5mfR0q0I3--29" value="" style="shape=table;html=1;whiteSpace=wrap;startSize=0;container=1;collapsible=0;childLayout=tableLayout;fontFamily=Comic Sans MS;fontSize=14;" vertex="1" parent="1">
          <mxGeometry x="320" y="200" width="80" height="80" as="geometry" />
        </mxCell>
        <mxCell id="Eke_tYe1ep5mfR0q0I3--30" value="" style="shape=tableRow;horizontal=0;startSize=0;swimlaneHead=0;swimlaneBody=0;top=0;left=0;bottom=0;right=0;collapsible=0;dropTarget=0;fillColor=none;points=[[0,0.5],[1,0.5]];portConstraint=eastwest;fontFamily=Comic Sans MS;fontSize=14;" vertex="1" parent="Eke_tYe1ep5mfR0q0I3--29">
          <mxGeometry width="80" height="40" as="geometry" />
        </mxCell>
        <mxCell id="Eke_tYe1ep5mfR0q0I3--31" value="W1" style="shape=partialRectangle;html=1;whiteSpace=wrap;connectable=0;fillColor=none;top=0;left=0;bottom=0;right=0;overflow=hidden;fontFamily=Comic Sans MS;fontSize=14;" vertex="1" parent="Eke_tYe1ep5mfR0q0I3--30">
          <mxGeometry width="40" height="40" as="geometry">
            <mxRectangle width="40" height="40" as="alternateBounds" />
          </mxGeometry>
        </mxCell>
        <mxCell id="Eke_tYe1ep5mfR0q0I3--32" value="W2" style="shape=partialRectangle;html=1;whiteSpace=wrap;connectable=0;fillColor=none;top=0;left=0;bottom=0;right=0;overflow=hidden;fontFamily=Comic Sans MS;fontSize=14;" vertex="1" parent="Eke_tYe1ep5mfR0q0I3--30">
          <mxGeometry x="40" width="40" height="40" as="geometry">
            <mxRectangle width="40" height="40" as="alternateBounds" />
          </mxGeometry>
        </mxCell>
        <mxCell id="Eke_tYe1ep5mfR0q0I3--34" value="" style="shape=tableRow;horizontal=0;startSize=0;swimlaneHead=0;swimlaneBody=0;top=0;left=0;bottom=0;right=0;collapsible=0;dropTarget=0;fillColor=none;points=[[0,0.5],[1,0.5]];portConstraint=eastwest;fontFamily=Comic Sans MS;fontSize=14;" vertex="1" parent="Eke_tYe1ep5mfR0q0I3--29">
          <mxGeometry y="40" width="80" height="40" as="geometry" />
        </mxCell>
        <mxCell id="Eke_tYe1ep5mfR0q0I3--35" value="W3" style="shape=partialRectangle;html=1;whiteSpace=wrap;connectable=0;fillColor=none;top=0;left=0;bottom=0;right=0;overflow=hidden;fontFamily=Comic Sans MS;fontSize=14;" vertex="1" parent="Eke_tYe1ep5mfR0q0I3--34">
          <mxGeometry width="40" height="40" as="geometry">
            <mxRectangle width="40" height="40" as="alternateBounds" />
          </mxGeometry>
        </mxCell>
        <mxCell id="Eke_tYe1ep5mfR0q0I3--36" value="W4" style="shape=partialRectangle;html=1;whiteSpace=wrap;connectable=0;fillColor=none;top=0;left=0;bottom=0;right=0;overflow=hidden;fontFamily=Comic Sans MS;fontSize=14;" vertex="1" parent="Eke_tYe1ep5mfR0q0I3--34">
          <mxGeometry x="40" width="40" height="40" as="geometry">
            <mxRectangle width="40" height="40" as="alternateBounds" />
          </mxGeometry>
        </mxCell>
        <mxCell id="Eke_tYe1ep5mfR0q0I3--42" value="" style="shape=table;html=1;whiteSpace=wrap;startSize=0;container=1;collapsible=0;childLayout=tableLayout;" vertex="1" parent="1">
          <mxGeometry x="440" y="160" width="160" height="160" as="geometry" />
        </mxCell>
        <mxCell id="Eke_tYe1ep5mfR0q0I3--43" value="" style="shape=tableRow;horizontal=0;startSize=0;swimlaneHead=0;swimlaneBody=0;top=0;left=0;bottom=0;right=0;collapsible=0;dropTarget=0;fillColor=none;points=[[0,0.5],[1,0.5]];portConstraint=eastwest;" vertex="1" parent="Eke_tYe1ep5mfR0q0I3--42">
          <mxGeometry width="160" height="79" as="geometry" />
        </mxCell>
        <mxCell id="Eke_tYe1ep5mfR0q0I3--44" value="&lt;span style=&quot;font-family: &amp;#34;comic sans ms&amp;#34;&quot;&gt;&lt;font style=&quot;font-size: 12px&quot;&gt;X11W1&lt;br&gt;+X12W2&lt;br&gt;+X21W3&lt;br&gt;+X22W4&lt;br&gt;&lt;/font&gt;&lt;/span&gt;" style="shape=partialRectangle;html=1;whiteSpace=wrap;connectable=0;fillColor=none;top=0;left=0;bottom=0;right=0;overflow=hidden;" vertex="1" parent="Eke_tYe1ep5mfR0q0I3--43">
          <mxGeometry width="81" height="79" as="geometry">
            <mxRectangle width="81" height="79" as="alternateBounds" />
          </mxGeometry>
        </mxCell>
        <mxCell id="Eke_tYe1ep5mfR0q0I3--45" value="" style="shape=partialRectangle;html=1;whiteSpace=wrap;connectable=0;fillColor=none;top=0;left=0;bottom=0;right=0;overflow=hidden;" vertex="1" parent="Eke_tYe1ep5mfR0q0I3--43">
          <mxGeometry x="81" width="79" height="79" as="geometry">
            <mxRectangle width="79" height="79" as="alternateBounds" />
          </mxGeometry>
        </mxCell>
        <mxCell id="Eke_tYe1ep5mfR0q0I3--47" value="" style="shape=tableRow;horizontal=0;startSize=0;swimlaneHead=0;swimlaneBody=0;top=0;left=0;bottom=0;right=0;collapsible=0;dropTarget=0;fillColor=none;points=[[0,0.5],[1,0.5]];portConstraint=eastwest;" vertex="1" parent="Eke_tYe1ep5mfR0q0I3--42">
          <mxGeometry y="79" width="160" height="81" as="geometry" />
        </mxCell>
        <mxCell id="Eke_tYe1ep5mfR0q0I3--48" value="" style="shape=partialRectangle;html=1;whiteSpace=wrap;connectable=0;fillColor=none;top=0;left=0;bottom=0;right=0;overflow=hidden;" vertex="1" parent="Eke_tYe1ep5mfR0q0I3--47">
          <mxGeometry width="81" height="81" as="geometry">
            <mxRectangle width="81" height="81" as="alternateBounds" />
          </mxGeometry>
        </mxCell>
        <mxCell id="Eke_tYe1ep5mfR0q0I3--49" value="" style="shape=partialRectangle;html=1;whiteSpace=wrap;connectable=0;fillColor=none;top=0;left=0;bottom=0;right=0;overflow=hidden;" vertex="1" parent="Eke_tYe1ep5mfR0q0I3--47">
          <mxGeometry x="81" width="79" height="81" as="geometry">
            <mxRectangle width="79" height="81" as="alternateBounds" />
          </mxGeometry>
        </mxCell>
      </root>
    </mxGraphModel>
  </diagram>
</mxfile>
